<svg width="172" height="292" viewBox="0 0 172 292" fill="none" xmlns="http://www.w3.org/2000/svg">
<path d="M126.602 140.948C118.706 108.456 58.2512 34.4931 27.561 19.8535C28.6378 23.2546 29.2213 25.7897 30.3611 28.2948C32.1776 32.9951 34.2105 37.5723 35.8105 42.3958C37.0407 46.5698 35.8626 49.5344 32.7723 50.1471C29.0326 51.1294 27.46 48.8708 26.0737 45.9326C20.8681 34.2733 15.7557 22.2741 10.8598 10.1518C8.55015 4.58528 11.3665 0.974606 17.6075 0.861907C20.1719 0.835487 22.8896 1.5819 25.454 1.55548C42.2291 2.32647 58.6645 3.00415 75.0998 3.68184C76.5519 3.71528 78.0971 3.40896 79.0231 4.02863C80.8751 5.26796 83.3135 7.03367 83.4039 8.70257C83.6176 10.588 81.9766 13.2427 80.2451 14.2286C78.2972 15.3377 75.7329 15.3641 73.2918 15.6071C66.1549 15.6564 58.9879 15.1494 51.851 15.1987C49.8428 15.1952 47.9579 15.4083 45.1771 15.5579C46.2566 16.9504 46.6265 17.6 47.0895 17.9098C86.0071 48.5096 113.914 87.9591 136.347 131.386C139.706 137.788 142.199 144.684 143.797 151.516C145.608 160.234 149.15 167.966 153.898 175.298C163.054 189.869 169.15 205.609 170.764 223.041C171.74 232.808 171.047 242.664 168.222 252.301C161.365 273.983 146.456 287.059 124.021 290.945C106.221 293.911 88.9553 290.265 72.7143 282.882C41.8379 268.922 19.2845 245.922 3.81587 215.734C2.58298 213.569 2.12268 211.25 1.44595 209.055C0.399359 206.21 1.05136 203.832 3.98829 202.446C6.92522 201.061 9.02385 202.733 10.38 205.115C11.1198 206.414 11.7663 208.053 12.5061 209.352C24.2761 233.044 42.1089 251.277 64.3964 265.253C76.7443 272.846 90.177 277.814 104.664 279.601C114.086 280.544 123.324 280.158 132.165 276.558C146.787 270.527 155.546 259.232 158.285 243.909C162.142 224.509 157.161 206.7 147.794 188.235C146.586 190.644 145.781 192.249 145.192 193.731C144.696 194.874 144.323 196.233 143.951 197.592C137.096 217.265 121.787 229.136 101.086 230.027C96.2969 230.173 91.3846 230.102 86.8751 229.229C48.2975 221.374 23.2729 198.061 11.026 161.451C5.67248 145.001 8.50512 129.339 21.6527 116.692C30.3456 108.301 41.2249 105.261 53.0576 105.405C63.778 105.61 73.9697 108.409 83.912 112.783C97.2818 118.647 109.443 126.919 120.769 136.241C122.528 137.82 124.38 139.059 126.602 140.948ZM27.9383 175.047C38.1438 190.454 52.8314 204.169 68.5162 211.583C78.3655 216.297 88.8968 219.189 100.02 218.591C116.025 217.506 126.973 209.553 132.06 194.326C134.17 187.964 134.674 180.796 135.085 173.967C135.15 171.062 133.734 167.568 132.161 165.309C115.66 144.885 95.9394 128.874 70.8329 120.517C64.1316 118.311 56.718 117.371 49.9208 117.514C30.5485 118.221 18.5105 132.817 21.5436 151.735C22.3053 159.616 25.7245 167.132 27.9383 175.047Z" fill="#D4C685"/>
</svg>
