<svg width="644" height="659" viewBox="0 0 644 659" fill="none" xmlns="http://www.w3.org/2000/svg">
<path d="M643.736 338.955C644.955 420.26 616.278 498.85 563.733 558.206C560.565 561.807 557.309 565.323 553.966 568.756C548.872 574.016 543.603 579.077 538.156 583.94C487.21 629.52 423.182 655.624 356.402 658.039C354.177 658.123 351.943 658.181 349.701 658.212C296.426 658.95 229.003 629.828 167.618 589.072C162.539 585.701 157.504 582.248 152.513 578.716C150.18 577.08 147.858 575.421 145.547 573.738C121.852 556.575 99.3242 537.678 78.1303 517.186C64.2545 503.81 51.218 489.494 39.104 474.329C-8.46257 414.113 -19.5277 359.416 46.9286 347.22C54.7968 345.781 62.4314 344.253 69.8324 342.636C80.5529 340.305 90.809 337.806 100.601 335.14C113.791 331.559 126.176 327.703 137.756 323.571C141.652 322.187 145.457 320.777 149.173 319.341C204.104 298.097 240.69 270.879 265.443 241.554C269.642 236.59 273.507 231.572 277.038 226.499C282.44 218.777 287.333 210.67 291.68 202.237C297.679 190.52 302.685 178.265 306.638 165.614L306.855 164.919C326.026 103.673 319.153 47.2049 340.972 27.9716C434.239 -54.2522 553.346 59.3529 610.384 194.479C613.259 201.287 615.969 208.14 618.515 215.036C619.658 218.116 620.762 221.203 621.827 224.296C624.627 232.357 627.178 240.441 629.48 248.55C630.363 251.643 631.206 254.733 632.011 257.821C632.872 261.154 633.699 264.478 634.468 267.803C640.173 292.146 643.421 316.187 643.736 338.955Z" fill="#FAF4FD"/>
</svg>
