<svg width="28" height="30" viewBox="0 0 28 30" fill="none" xmlns="http://www.w3.org/2000/svg">
<path d="M23.3333 22.5H21V11.5625L14 16.25L6.99998 11.5625V22.5H4.66665V7.5H6.06665L14 12.8125L21.9333 7.5H23.3333V22.5ZM23.3333 5H4.66665C3.37165 5 2.33331 6.1125 2.33331 7.5V22.5C2.33331 23.163 2.57915 23.7989 3.01673 24.2678C3.45432 24.7366 4.04781 25 4.66665 25H23.3333C23.9522 25 24.5456 24.7366 24.9832 24.2678C25.4208 23.7989 25.6666 23.163 25.6666 22.5V7.5C25.6666 6.83696 25.4208 6.20107 24.9832 5.73223C24.5456 5.26339 23.9522 5 23.3333 5Z" fill="#5C356F"/>
</svg>
