<svg width="28" height="28" viewBox="0 0 28 28" fill="none" xmlns="http://www.w3.org/2000/svg">
<path d="M23.1793 3.0625H4.8207C3.85 3.0625 3.0625 3.85 3.0625 4.8207V23.1793C3.0625 24.15 3.85 24.9375 4.8207 24.9375H23.1793C24.15 24.9375 24.9375 24.15 24.9375 23.1793V4.8207C24.9375 3.85 24.15 3.0625 23.1793 3.0625ZM23.1793 23.1875C10.9348 23.1848 4.8125 23.182 4.8125 23.1793C4.81523 10.9348 4.81797 4.8125 4.8207 4.8125C17.0652 4.81523 23.1875 4.81797 23.1875 4.8207C23.1848 17.0652 23.182 23.1875 23.1793 23.1875ZM6.30547 11.2629H9.55117V21.7027H6.30547V11.2629ZM7.92969 9.83555C8.96602 9.83555 9.81094 8.99336 9.81094 7.9543C9.81094 7.70725 9.76228 7.46262 9.66774 7.23437C9.57319 7.00613 9.43462 6.79874 9.25993 6.62405C9.08524 6.44936 8.87785 6.31079 8.64961 6.21625C8.42137 6.12171 8.17674 6.07305 7.92969 6.07305C7.68264 6.07305 7.43801 6.12171 7.20976 6.21625C6.98152 6.31079 6.77413 6.44936 6.59944 6.62405C6.42475 6.79874 6.28618 7.00613 6.19164 7.23437C6.0971 7.46262 6.04844 7.70725 6.04844 7.9543C6.0457 8.99336 6.88789 9.83555 7.92969 9.83555ZM14.8285 16.5375C14.8285 15.1758 15.0883 13.8578 16.7754 13.8578C18.4379 13.8578 18.4625 15.4137 18.4625 16.625V21.7027H21.7055V15.977C21.7055 13.166 21.0984 11.0031 17.8145 11.0031C16.2367 11.0031 15.1785 11.8699 14.7438 12.6902H14.7V11.2629H11.5855V21.7027H14.8285V16.5375Z" fill="#5C356F"/>
</svg>
