<svg width="40" height="40" viewBox="0 0 40 40" fill="none" xmlns="http://www.w3.org/2000/svg">
<path d="M20 8.33334L20.8833 7.45001C20.6489 7.21593 20.3312 7.08444 20 7.08444C19.6687 7.08444 19.351 7.21593 19.1167 7.45001L20 8.33334ZM20 21.6667L19.1167 22.55C19.351 22.7841 19.6687 22.9156 20 22.9156C20.3312 22.9156 20.6489 22.7841 20.8833 22.55L20 21.6667ZM15.7833 10.7833C15.5625 11.0203 15.4423 11.3337 15.448 11.6575C15.4537 11.9814 15.5849 12.2904 15.814 12.5194C16.043 12.7484 16.352 12.8796 16.6758 12.8853C16.9996 12.891 17.313 12.7708 17.55 12.55L15.7833 10.7833ZM22.45 12.55C22.5644 12.6728 22.7024 12.7713 22.8558 12.8396C23.0091 12.908 23.1746 12.9447 23.3425 12.9477C23.5103 12.9506 23.677 12.9198 23.8327 12.8569C23.9883 12.794 24.1297 12.7004 24.2484 12.5817C24.3671 12.463 24.4607 12.3217 24.5235 12.166C24.5864 12.0104 24.6173 11.8436 24.6143 11.6758C24.6113 11.508 24.5746 11.3424 24.5063 11.1891C24.438 11.0358 24.3395 10.8978 24.2167 10.7833L22.45 12.55ZM17.55 17.45C17.4356 17.3272 17.2976 17.2287 17.1442 17.1604C16.9909 17.0921 16.8254 17.0553 16.6575 17.0524C16.4897 17.0494 16.323 17.0803 16.1673 17.1431C16.0117 17.206 15.8703 17.2996 15.7516 17.4183C15.6329 17.537 15.5393 17.6784 15.4765 17.834C15.4136 17.9897 15.3827 18.1564 15.3857 18.3242C15.3886 18.4921 15.4254 18.6576 15.4937 18.8109C15.562 18.9642 15.6605 19.1022 15.7833 19.2167L17.55 17.45ZM24.2167 19.2167C24.3395 19.1022 24.438 18.9642 24.5063 18.8109C24.5746 18.6576 24.6113 18.4921 24.6143 18.3242C24.6173 18.1564 24.5864 17.9897 24.5235 17.834C24.4607 17.6784 24.3671 17.537 24.2484 17.4183C24.1297 17.2996 23.9883 17.206 23.8327 17.1431C23.677 17.0803 23.5103 17.0494 23.3425 17.0524C23.1746 17.0553 23.0091 17.0921 22.8558 17.1604C22.7024 17.2287 22.5644 17.3272 22.45 17.45L24.2167 19.2167ZM5.41666 16.6667V23.3333H7.91666V16.6667H5.41666ZM34.5833 23.3333V16.6667H32.0833V23.3333H34.5833ZM18.75 8.33334V21.6667H21.25V8.33334H18.75ZM19.1167 7.45001L15.7833 10.7833L17.55 12.55L20.8833 9.21668L19.1167 7.45001V7.45001ZM19.1167 9.21668L22.45 12.55L24.2167 10.7833L20.8833 7.45001L19.1167 9.21668ZM20.8833 20.7833L17.55 17.45L15.7833 19.2167L19.1167 22.55L20.8833 20.7833ZM20.8833 22.55L24.2167 19.2167L22.45 17.45L19.1167 20.7833L20.8833 22.55ZM34.5833 16.6667C34.5833 12.7989 33.0469 9.08961 30.312 6.3547C27.5771 3.6198 23.8677 2.08334 20 2.08334V4.58334C23.2047 4.58334 26.2781 5.85641 28.5442 8.12247C30.8103 10.3885 32.0833 13.462 32.0833 16.6667H34.5833ZM20 37.9167C21.9151 37.9167 23.8115 37.5395 25.5808 36.8066C27.3501 36.0737 28.9578 34.9995 30.312 33.6453C31.6662 32.2911 32.7403 30.6835 33.4732 28.9141C34.2061 27.1448 34.5833 25.2485 34.5833 23.3333H32.0833C32.0833 26.538 30.8103 29.6115 28.5442 31.8776C26.2781 34.1436 23.2047 35.4167 20 35.4167V37.9167ZM5.41666 23.3333C5.41666 27.2011 6.95311 30.9104 9.68802 33.6453C12.4229 36.3802 16.1322 37.9167 20 37.9167V35.4167C16.7953 35.4167 13.7218 34.1436 11.4558 31.8776C9.18972 29.6115 7.91666 26.538 7.91666 23.3333H5.41666ZM7.91666 16.6667C7.91666 13.462 9.18972 10.3885 11.4558 8.12247C13.7218 5.85641 16.7953 4.58334 20 4.58334V2.08334C16.1322 2.08334 12.4229 3.6198 9.68802 6.3547C6.95311 9.08961 5.41666 12.7989 5.41666 16.6667H7.91666Z" fill="#5F5B27"/>
</svg>
