<svg width="44" height="44" viewBox="0 0 44 44" fill="none" xmlns="http://www.w3.org/2000/svg">
<g clip-path="url(#clip0_1_18)">
<path d="M42.7091 19.7962C42.7284 19.9789 42.6936 20.1632 42.6091 20.3263C42.5245 20.4894 42.3939 20.624 42.2334 20.7135L16.6078 35.0776C16.3821 35.2041 16.1258 35.2658 15.8673 35.256C15.6087 35.2462 15.3579 35.1653 15.1424 35.0221C14.9269 34.879 14.755 34.6791 14.6458 34.4446C14.5365 34.21 14.4941 33.9499 14.5231 33.6928L15.772 22.6628L12.2298 12.1426C12.1468 11.8971 12.1332 11.6335 12.1906 11.3809C12.2479 11.1282 12.3739 10.8963 12.5547 10.7107C12.7355 10.5251 12.964 10.3931 13.2151 10.3292C13.4662 10.2653 13.73 10.272 13.9775 10.3486L42.0499 19.001C42.2255 19.0547 42.3816 19.1589 42.4986 19.3005C42.6156 19.4421 42.6884 19.615 42.708 19.7977L42.7091 19.7962ZM17.5717 23.4126L16.4886 32.993L37.3316 21.3098L17.5717 23.4126ZM37.1333 19.4456L14.2983 12.4104L17.376 21.5481L37.1347 19.4468L37.1333 19.4456Z" fill="black"/>
</g>
<defs>
<clipPath id="clip0_1_18">
<rect width="30" height="30" fill="white" transform="translate(19.7552 0.905884) rotate(38.9256)"/>
</clipPath>
</defs>
</svg>
